<?xml version="1.0" standalone="no"?>
<!DOCTYPE svg PUBLIC "-//W3C//DTD SVG 20010904//EN"
 "http://www.w3.org/TR/2001/REC-SVG-20010904/DTD/svg10.dtd">
<svg version="1.0" xmlns="http://www.w3.org/2000/svg"
 width="1500.000000pt" height="1500.000000pt" viewBox="0 0 1500.000000 1500.000000"
 preserveAspectRatio="xMidYMid meet">
<metadata>
Created by potrace 1.14, written by Peter Selinger 2001-2017
</metadata>
<g transform="translate(0.000000,1500.000000) scale(0.100000,-0.100000)"
fill="#000000" stroke="none">
<path d="M7168 14995 c-1 -2 -55 -6 -118 -9 -63 -4 -140 -8 -170 -11 -98 -9
-164 -15 -200 -19 -19 -3 -62 -7 -95 -11 -33 -3 -85 -10 -115 -15 -30 -5 -77
-12 -105 -15 -27 -4 -57 -8 -65 -10 -8 -3 -33 -7 -55 -10 -22 -4 -51 -8 -65
-11 -14 -2 -41 -7 -60 -10 -19 -3 -43 -7 -52 -10 -10 -3 -30 -7 -45 -10 -16
-3 -35 -7 -43 -9 -8 -2 -28 -7 -45 -10 -16 -2 -41 -7 -55 -10 -14 -3 -36 -8
-50 -11 -113 -23 -462 -119 -640 -177 -435 -141 -945 -361 -1289 -556 -40 -23
-75 -41 -77 -41 -2 0 -21 -11 -42 -24 -20 -13 -89 -54 -152 -91 -264 -157
-698 -463 -891 -629 -19 -17 -60 -51 -90 -76 -128 -106 -267 -237 -459 -429
-242 -243 -319 -328 -547 -605 -38 -47 -233 -306 -263 -351 -19 -27 -38 -54
-42 -60 -24 -28 -148 -219 -148 -226 0 -5 -3 -9 -8 -9 -4 0 -22 -26 -40 -57
-18 -32 -47 -80 -64 -108 -213 -347 -423 -776 -586 -1200 -134 -346 -276 -834
-337 -1150 -8 -44 -17 -91 -20 -105 -3 -14 -8 -38 -10 -55 -3 -16 -12 -66 -20
-110 -29 -165 -49 -319 -71 -540 -3 -33 -7 -76 -9 -95 -20 -193 -27 -854 -12
-1080 9 -140 17 -239 22 -275 2 -16 7 -57 10 -90 3 -33 11 -94 16 -135 14
-104 16 -119 24 -168 4 -23 8 -52 10 -65 1 -12 6 -40 10 -61 4 -22 9 -47 10
-55 9 -87 82 -412 160 -711 20 -79 95 -315 139 -440 96 -273 148 -404 231
-585 12 -27 44 -96 70 -153 45 -99 170 -346 185 -367 4 -5 27 -46 50 -90 132
-245 340 -564 556 -850 79 -104 153 -202 166 -217 13 -14 52 -62 88 -105 35
-43 67 -80 70 -83 3 -3 38 -43 79 -90 93 -105 480 -493 580 -581 41 -35 79
-69 85 -74 16 -15 127 -109 154 -131 13 -11 33 -27 45 -38 12 -10 38 -30 57
-45 19 -14 37 -29 40 -32 24 -28 455 -336 545 -389 22 -13 42 -27 45 -30 4 -5
69 -46 152 -95 9 -5 36 -22 60 -36 488 -292 1080 -554 1625 -719 232 -71 532
-148 678 -174 52 -10 76 -15 93 -20 10 -3 31 -8 47 -10 17 -2 75 -11 130 -20
55 -10 111 -19 125 -22 23 -3 213 -28 305 -39 22 -3 67 -7 100 -10 33 -3 78
-7 100 -10 263 -27 988 -27 1255 1 25 2 65 6 90 8 91 8 278 30 340 41 14 2 43
6 65 10 89 13 180 28 275 46 30 6 66 12 80 15 14 2 36 7 50 10 38 9 61 14 110
24 25 5 124 29 220 54 96 25 185 48 198 51 13 3 42 12 65 19 35 12 271 87 287
91 3 1 14 5 25 9 11 4 52 19 90 32 343 122 703 283 1030 459 151 82 226 125
398 230 41 25 262 171 331 217 41 28 333 245 356 265 14 12 59 48 101 82 219
174 678 612 844 805 33 38 65 74 70 80 6 6 35 40 65 76 30 36 57 67 60 70 23
23 148 184 248 320 67 91 126 170 130 175 37 48 282 431 282 441 0 2 15 27 33
56 70 110 289 528 350 668 8 19 26 60 40 90 236 519 448 1233 542 1830 19 122
53 392 60 476 4 43 9 95 10 114 13 134 20 340 20 620 0 317 -8 511 -29 712
-20 188 -40 346 -52 413 -3 17 -7 41 -9 55 -2 23 -17 109 -30 185 -16 86 -51
248 -85 391 -166 692 -440 1375 -793 1982 -40 68 -80 135 -89 150 -10 15 -25
40 -34 56 -14 26 -197 305 -216 331 -4 6 -68 91 -141 190 -74 99 -143 191
-155 205 -12 14 -62 75 -113 135 -50 61 -128 151 -172 200 -98 110 -500 511
-582 580 -32 28 -63 55 -69 60 -15 14 -126 108 -155 131 -13 11 -29 24 -36 31
-63 59 -396 304 -600 440 -916 612 -2024 1029 -3115 1174 -41 5 -88 11 -105
14 -16 2 -59 6 -95 10 -36 3 -76 8 -90 10 -14 2 -70 7 -125 11 -55 3 -111 8
-125 11 -31 5 -807 13 -812 8z"/>
</g>
</svg>
